<svg width="99" height="42" viewBox="0 0 99 42" fill="none" xmlns="http://www.w3.org/2000/svg">
<path id="Ellipse 73" d="M98.75 21C98.75 23.814 97.4068 26.5164 94.933 28.9976C92.4582 31.4799 88.8647 33.7268 84.4042 35.6191C75.4841 39.4034 63.1438 41.75 49.5 41.75C35.8562 41.75 23.5159 39.4034 14.5959 35.6191C10.1354 33.7268 6.54176 31.4799 4.067 28.9976C1.59324 26.5164 0.25 23.814 0.25 21C0.25 18.186 1.59324 15.4836 4.067 13.0024C6.54176 10.5201 10.1354 8.27324 14.5959 6.3809C23.5159 2.59664 35.8562 0.25 49.5 0.25C63.1438 0.25 75.4841 2.59664 84.4042 6.3809C88.8647 8.27324 92.4582 10.5201 94.933 13.0024C97.4068 15.4836 98.75 18.186 98.75 21Z" stroke="#0DB760" stroke-width="0.5"/>
</svg>
